<svg width="20" height="20" viewBox="0 0 20 20" fill="none" xmlns="http://www.w3.org/2000/svg">
<g opacity="0.6">
<path d="M19.6355 5.49886L17.2532 8.7894C17.2322 8.81849 17.2056 8.84315 17.175 8.86196C17.1445 8.88078 17.1105 8.89339 17.075 8.89907C17.0396 8.90475 17.0034 8.90339 16.9684 8.89507C16.9335 8.88675 16.9006 8.87163 16.8715 8.85058L15.6891 7.99507V17.5569C15.6891 17.6295 15.6603 17.699 15.609 17.7503C15.5578 17.8016 15.4882 17.8304 15.4157 17.8304H4.58429C4.51177 17.8304 4.44222 17.8016 4.39094 17.7503C4.33966 17.699 4.31086 17.6295 4.31086 17.5569V7.99507L3.12851 8.85058C3.09943 8.87163 3.06649 8.88675 3.03156 8.89507C2.99663 8.90339 2.96041 8.90475 2.92496 8.89907C2.88951 8.89339 2.85553 8.88078 2.82495 8.86196C2.79437 8.84315 2.7678 8.81849 2.74675 8.7894L0.364449 5.49886C0.321929 5.44012 0.304479 5.36691 0.315936 5.29531C0.327393 5.22371 0.366819 5.15959 0.425543 5.11706L3.9257 2.58245C4.31046 2.30464 4.72695 2.16972 5.19933 2.16972H6.52777C6.76109 3.87722 8.2289 5.19718 9.99945 5.19718C11.77 5.19718 13.2378 3.87722 13.4711 2.16972H14.8007C15.273 2.16972 15.6896 2.30468 16.074 2.58226L19.5744 5.1171C19.6035 5.13815 19.6281 5.16473 19.647 5.19531C19.6658 5.2259 19.6784 5.25989 19.684 5.29534C19.6897 5.3308 19.6884 5.36702 19.68 5.40195C19.6717 5.43687 19.6566 5.46982 19.6355 5.4989L19.6355 5.49886ZM9.99941 4.02526C11.1221 4.02526 12.0619 3.22784 12.2826 2.16968H7.71621C7.93687 3.22784 8.87671 4.02526 9.99941 4.02526Z" fill="#4F536C"/>
</g>
</svg>
