<svg width="32" height="32" viewBox="0 0 32 32" fill="none" xmlns="http://www.w3.org/2000/svg">
<path fill-rule="evenodd" clip-rule="evenodd" d="M16 1.66699C11.036 1.66699 7 5.73899 7 10.7617C7 12.463 7.74933 14.5737 8.84 16.679C11.2413 21.315 15.2413 25.9843 15.2413 25.9843C15.3352 26.0937 15.4516 26.1814 15.5826 26.2416C15.7135 26.3017 15.8559 26.3328 16 26.3328C16.1441 26.3328 16.2865 26.3017 16.4174 26.2416C16.5484 26.1814 16.6648 26.0937 16.7587 25.9843C16.7587 25.9843 20.7587 21.315 23.16 16.679C24.2507 14.5737 25 12.463 25 10.7617C25 5.73899 20.964 1.66699 16 1.66699ZM16 7.00033C15.0447 7.02609 14.1371 7.4237 13.4705 8.10853C12.8039 8.79335 12.4309 9.7113 12.4309 10.667C12.4309 11.6227 12.8039 12.5406 13.4705 13.2255C14.1371 13.9103 15.0447 14.3079 16 14.3337C16.9553 14.3079 17.8629 13.9103 18.5295 13.2255C19.1961 12.5406 19.5691 11.6227 19.5691 10.667C19.5691 9.7113 19.1961 8.79335 18.5295 8.10853C17.8629 7.4237 16.9553 7.02609 16 7.00033Z" fill="white"/>
<path fill-rule="evenodd" clip-rule="evenodd" d="M22.3774 23.1693C23.4614 23.4946 24.3547 23.8973 24.972 24.3693C25.372 24.6733 25.6654 24.9706 25.6654 25.3333C25.6654 25.5466 25.544 25.74 25.3734 25.9333C25.0907 26.252 24.6707 26.5386 24.1507 26.8053C22.3134 27.7453 19.3427 28.3333 15.9987 28.3333C12.6547 28.3333 9.68403 27.7453 7.8467 26.8053C7.3267 26.5386 6.9067 26.252 6.62403 25.9333C6.45336 25.74 6.33203 25.5466 6.33203 25.3333C6.33203 24.9706 6.62536 24.6733 7.02536 24.3693C7.6427 23.8973 8.53603 23.4946 9.62003 23.1693C9.87411 23.0929 10.0874 22.9187 10.2131 22.6851C10.3387 22.4514 10.3664 22.1774 10.29 21.9233C10.2136 21.6692 10.0395 21.4559 9.80579 21.3302C9.57212 21.2046 9.29811 21.1769 9.04403 21.2533C7.39336 21.7506 6.1107 22.432 5.34003 23.1853C4.6627 23.8453 4.33203 24.584 4.33203 25.3333C4.33203 26.2693 4.86136 27.2026 5.93736 27.9813C7.82536 29.3466 11.6174 30.3333 15.9987 30.3333C20.38 30.3333 24.172 29.3466 26.06 27.9813C27.136 27.2026 27.6654 26.2693 27.6654 25.3333C27.6654 24.584 27.3347 23.8453 26.6574 23.1853C25.8867 22.432 24.604 21.7506 22.9534 21.2533C22.8276 21.2155 22.6955 21.2028 22.5648 21.216C22.4341 21.2292 22.3073 21.268 22.1916 21.3302C22.0759 21.3925 21.9736 21.4769 21.8905 21.5786C21.8074 21.6804 21.7452 21.7975 21.7074 21.9233C21.6695 22.0491 21.6569 22.1811 21.6701 22.3118C21.6833 22.4425 21.7221 22.5694 21.7843 22.6851C21.8465 22.8008 21.9309 22.9031 22.0327 22.9862C22.1344 23.0692 22.2516 23.1315 22.3774 23.1693Z" fill="white"/>
</svg>
