<svg width="14" height="14" viewBox="0 0 14 14" fill="none" xmlns="http://www.w3.org/2000/svg">
<path fill-rule="evenodd" clip-rule="evenodd" d="M6.375 8.25C6.375 8.08424 6.30915 7.92527 6.19194 7.80806C6.07473 7.69085 5.91576 7.625 5.75 7.625H1.375C1.20924 7.625 1.05027 7.69085 0.933058 7.80806C0.815848 7.92527 0.75 8.08424 0.75 8.25V12.625C0.75 12.7908 0.815848 12.9497 0.933058 13.0669C1.05027 13.1842 1.20924 13.25 1.375 13.25H5.75C5.91576 13.25 6.07473 13.1842 6.19194 13.0669C6.30915 12.9497 6.375 12.7908 6.375 12.625V8.25ZM13.25 8.25C13.25 8.08424 13.1842 7.92527 13.0669 7.80806C12.9497 7.69085 12.7908 7.625 12.625 7.625H8.25C8.08424 7.625 7.92527 7.69085 7.80806 7.80806C7.69085 7.92527 7.625 8.08424 7.625 8.25V12.625C7.625 12.7908 7.69085 12.9497 7.80806 13.0669C7.92527 13.1842 8.08424 13.25 8.25 13.25H12.625C12.7908 13.25 12.9497 13.1842 13.0669 13.0669C13.1842 12.9497 13.25 12.7908 13.25 12.625V8.25ZM13.25 1.375C13.25 1.20924 13.1842 1.05027 13.0669 0.933058C12.9497 0.815848 12.7908 0.75 12.625 0.75H8.25C8.08424 0.75 7.92527 0.815848 7.80806 0.933058C7.69085 1.05027 7.625 1.20924 7.625 1.375V5.75C7.625 5.91576 7.69085 6.07473 7.80806 6.19194C7.92527 6.30915 8.08424 6.375 8.25 6.375H12.625C12.7908 6.375 12.9497 6.30915 13.0669 6.19194C13.1842 6.07473 13.25 5.91576 13.25 5.75V1.375ZM6.375 1.375C6.375 1.20924 6.30915 1.05027 6.19194 0.933058C6.07473 0.815848 5.91576 0.75 5.75 0.75H1.375C1.20924 0.75 1.05027 0.815848 0.933058 0.933058C0.815848 1.05027 0.75 1.20924 0.75 1.375V5.75C0.75 5.91576 0.815848 6.07473 0.933058 6.19194C1.05027 6.30915 1.20924 6.375 1.375 6.375H5.75C5.91576 6.375 6.07473 6.30915 6.19194 6.19194C6.30915 6.07473 6.375 5.91576 6.375 5.75V1.375Z" fill="white"/>
</svg>
