<svg width="20" height="20" viewBox="0 0 20 20" fill="none" xmlns="http://www.w3.org/2000/svg">
<g opacity="0.6" clip-path="url(#clip0_6491_558)">
<path d="M7.36173 10.5566C6.58887 10.4125 2.9572 10.3862 2.0428 10.5566C1.241 10.7062 0.586816 11.3127 0.376218 12.1018C-0.125406 13.9811 -0.125406 16.0511 0.376218 17.9305C0.586816 18.7196 1.24096 19.3261 2.04284 19.4756C3.65622 19.7764 5.75284 19.7755 7.36169 19.4756C8.16353 19.3261 8.81771 18.7196 9.02831 17.9305C9.52994 16.0511 9.52994 13.9811 9.02831 12.1018C8.81771 11.3127 8.16357 10.7061 7.36173 10.5566ZM4.77254 17.1024H3.20229V12.9031H4.5084C5.45942 12.9318 6.16592 13.0224 6.20784 13.9659C6.21233 14.4114 5.99489 14.7995 5.5619 14.8735V14.9022C6.09977 15.0217 6.31002 15.3463 6.31408 15.8845C6.31045 16.741 5.60729 17.1052 4.77254 17.1024Z" fill="#4F536C"/>
<path d="M4.64295 15.2727H4.0918V16.367H4.67163C5.10748 16.3635 5.38376 16.2334 5.38928 15.7954C5.38928 15.447 5.14056 15.2727 4.64295 15.2727ZM5.29457 14.0836C5.27675 13.6749 4.9659 13.6467 4.5597 13.6327H4.0918V14.5661H4.60851C5.01355 14.5575 5.28799 14.4934 5.29457 14.0836ZM19.6234 12.1018C19.4128 11.3127 18.7587 10.7061 17.9568 10.5566H17.9568C17.1615 10.4083 13.4333 10.4083 12.6379 10.5566C11.8361 10.7062 11.1819 11.3127 10.9713 12.1018C10.4697 13.9811 10.4697 16.0511 10.9713 17.9304C11.1819 18.7196 11.8361 19.3261 12.638 19.4756C14.2513 19.7763 16.3479 19.7755 17.9568 19.4756C18.7586 19.3261 19.4128 18.7196 19.6234 17.9304C20.125 16.0511 20.125 13.9811 19.6234 12.1018ZM15.5801 16.4187C15.8747 16.4187 16.2317 16.3451 16.6508 16.1976V16.9444C15.8938 17.2729 14.6218 17.2741 14.0959 16.604C13.4873 15.9067 13.4583 14.6687 13.8491 13.861C14.3657 12.7449 15.778 12.6176 16.8086 13.1386L16.5216 13.8624C16.2247 13.7266 15.903 13.5807 15.5801 13.5838C14.1414 13.6055 14.1438 16.4187 15.5801 16.4187ZM10.001 3.43506C9.93782 3.67993 9.75688 4.28536 9.45816 5.2513H10.5524C10.2709 4.34655 10.1125 3.83485 10.0771 3.71626C10.0416 3.59767 10.0163 3.5039 10.001 3.43506Z" fill="#4F536C"/>
<path d="M14.3252 7.84194C14.8269 5.96262 14.8269 3.89262 14.3252 2.01326C14.1146 1.22412 13.4605 0.61758 12.6586 0.468135C11.9366 0.333477 8.40074 0.162708 7.30053 0.477323C6.46284 0.71681 5.86967 1.27664 5.67309 2.01322C5.17147 3.89258 5.17147 5.96258 5.67309 7.8419C5.85784 8.53429 6.39549 9.04784 7.27108 9.36826C8.7319 9.90296 11.1566 9.66715 12.6586 9.38707C13.4604 9.23767 14.1147 8.63113 14.3252 7.84194ZM11.0685 7.01382L10.7642 6.01425H9.23412L8.92985 7.01382H7.971L9.45224 2.79732H10.5402L12.0272 7.01382H11.0685Z" fill="#4F536C"/>
</g>
<defs>
<clipPath id="clip0_6491_558">
<rect width="20" height="20" fill="white"/>
</clipPath>
</defs>
</svg>
