<svg width="50" height="50" viewBox="0 0 50 50" fill="none" xmlns="http://www.w3.org/2000/svg">
<g clip-path="url(#clip0_6491_808)">
<path d="M43.8551 37.8906C44.0493 37.8906 44.2356 37.8135 44.373 37.6761C44.5104 37.5388 44.5875 37.3525 44.5875 37.1582V19.5801C44.5875 18.7059 44.2468 17.8116 43.6281 17.0621L38.1962 10.4807C37.9197 10.1444 37.5936 9.85208 37.2292 9.61379C37.251 9.38997 37.2634 9.16389 37.2634 8.93567V0.732544C37.2634 0.538294 37.1862 0.351999 37.0489 0.214643C36.9115 0.0772877 36.7252 0.00012207 36.531 0.00012207C36.3367 0.00012207 36.1504 0.0772877 36.0131 0.214643C35.8757 0.351999 35.7986 0.538294 35.7986 0.732544C35.7986 0.732544 35.7971 9.00549 35.7965 9.04045C35.5876 9.00333 35.3759 8.98461 35.1638 8.9845H25.6911C25.0242 8.9845 24.3705 9.17161 23.7853 9.51545C23.7597 9.52449 23.7347 9.53493 23.7103 9.5467L16.5705 13.0244C15.7774 13.4235 15.1477 14.086 14.7893 14.8984C14.7854 14.9073 14.7817 14.9161 14.7781 14.9251L11.8262 22.4126C11.7582 22.5927 11.7637 22.7922 11.8417 22.9682C11.9196 23.1442 12.0637 23.2824 12.2427 23.353C12.4218 23.4236 12.6214 23.4209 12.7985 23.3455C12.9756 23.27 13.1158 23.1279 13.189 22.9499L16.1352 15.4769C16.3568 14.9819 16.7442 14.5763 17.2196 14.3376L20.9919 12.5002L17.2267 17.0622C16.6629 17.7452 16.365 18.616 16.365 19.5803V44.8733C16.365 45.1678 16.3908 45.4562 16.4378 45.7372L8.89074 42.3931C7.18586 41.6377 6.4132 39.6312 7.16867 37.9202L7.17814 37.8979L11.9519 26.0342C12.0244 25.854 12.0224 25.6524 11.9462 25.4736C11.8701 25.2949 11.726 25.1538 11.5458 25.0813C11.3656 25.0088 11.164 25.0108 10.9853 25.0869C10.8065 25.1631 10.6654 25.3071 10.5929 25.4873L5.82336 37.34C4.7509 39.7863 5.85871 42.6517 8.29728 43.7322L17.1473 47.6536C17.1581 47.6584 17.1692 47.6619 17.1801 47.6661C18.0783 49.0697 19.6313 50 21.3943 50H39.4607C42.2398 50 44.5876 47.6522 44.5876 44.8731V40.5762C44.5876 40.3819 44.5105 40.1956 44.3731 40.0583C44.2357 39.9209 44.0494 39.8438 43.8552 39.8438C43.6609 39.8438 43.4746 39.9209 43.3373 40.0583C43.1999 40.1956 43.1228 40.3819 43.1228 40.5762V44.8731C43.1228 46.8581 41.4457 48.5352 39.4607 48.5352H21.3943C19.4288 48.5352 17.8298 46.8924 17.8298 44.8731V19.5801C17.8298 18.9514 18.007 18.4179 18.3565 17.9946L23.7884 11.4131C24.294 10.8006 24.9875 10.4492 25.6911 10.4492H35.1638C35.3018 10.4492 35.4393 10.4632 35.5751 10.4896C35.1166 12.0531 33.9809 13.3578 32.4472 14.0116C32.0461 13.3408 31.3129 12.8906 30.4762 12.8906C29.2108 12.8906 28.1813 13.9201 28.1813 15.1856C28.1813 16.451 29.2108 17.4805 30.4762 17.4805C31.6464 17.4805 32.6142 16.5998 32.7533 15.4665C34.7259 14.7204 36.2175 13.1396 36.882 11.21C36.9466 11.2748 37.0082 11.3426 37.0665 11.4131L42.4985 17.9947C42.901 18.4823 43.1228 19.0454 43.1228 19.5802V37.1583C43.1228 37.2545 43.1417 37.3497 43.1785 37.4386C43.2153 37.5274 43.2692 37.6082 43.3372 37.6762C43.4052 37.7442 43.486 37.7981 43.5748 37.8349C43.6637 37.8717 43.7589 37.8907 43.8551 37.8906ZM30.4762 16.0156C30.0185 16.0156 29.6461 15.6433 29.6461 15.1856C29.6461 14.7279 30.0185 14.3555 30.4762 14.3555C30.9339 14.3555 31.3063 14.7279 31.3063 15.1856C31.3063 15.6433 30.9339 16.0156 30.4762 16.0156Z" fill="white"/>
<path d="M24.1289 38.9648C24.2251 38.965 24.3204 38.9461 24.4093 38.9093C24.4981 38.8724 24.5789 38.8184 24.6468 38.7503L37.1468 26.2503C37.2841 26.1129 37.3613 25.9267 37.3613 25.7324C37.3613 25.5382 37.2841 25.3519 37.1468 25.2145C37.0094 25.0772 36.8231 25.0001 36.6289 25.0001C36.4347 25.0001 36.2484 25.0772 36.111 25.2145L23.611 37.7146C23.144 38.1498 23.5023 38.987 24.1289 38.9648ZM25.6914 31.25C27.4414 31.25 28.8652 29.8262 28.8652 28.0762C28.8652 26.3262 27.4414 24.9023 25.6914 24.9023H25.5938C23.8438 24.9023 22.4199 26.3262 22.4199 28.0762C22.4199 29.8262 23.8438 31.25 25.5938 31.25H25.6914ZM23.8848 28.0762C23.8848 27.1339 24.6515 26.3672 25.5938 26.3672H25.6914C26.6337 26.3672 27.4004 27.1339 27.4004 28.0762C27.4004 29.0185 26.6337 29.7852 25.6914 29.7852H25.5938C24.6515 29.7852 23.8848 29.0185 23.8848 28.0762ZM35.1641 38.9648H35.2617C37.0117 38.9648 38.4355 37.541 38.4355 35.791C38.4355 34.041 37.0117 32.6172 35.2617 32.6172H35.1641C33.4141 32.6172 31.9902 34.041 31.9902 35.791C31.9902 37.541 33.4141 38.9648 35.1641 38.9648ZM35.1641 34.082H35.2617C36.204 34.082 36.9707 34.8487 36.9707 35.791C36.9707 36.7333 36.204 37.5 35.2617 37.5H35.1641C34.2218 37.5 33.4551 36.7333 33.4551 35.791C33.4551 34.8487 34.2218 34.082 35.1641 34.082Z" fill="white"/>
</g>
<defs>
<clipPath id="clip0_6491_808">
<rect width="50" height="50" fill="white"/>
</clipPath>
</defs>
</svg>
