<svg width="30" height="30" viewBox="0 0 30 30" fill="none" xmlns="http://www.w3.org/2000/svg">
<path d="M12.6503 10.8272C12.8028 10.914 12.9765 10.9569 13.1519 10.9509C13.3316 10.9344 13.5058 10.8798 13.6628 10.7906L24.9222 4.22062C24.6775 3.79416 24.3249 3.43955 23.8999 3.19239C23.4749 2.94523 22.9923 2.81422 22.5006 2.8125H3.75063C3.25879 2.81406 2.77603 2.94499 2.35081 3.19216C1.92559 3.43932 1.57289 3.79402 1.32812 4.22062L12.6503 10.8272Z" fill="white"/>
<path d="M25.3125 6.15936V12.675C24.4104 12.3503 23.4587 12.1853 22.5 12.1875C20.2633 12.191 18.1192 13.081 16.5376 14.6626C14.956 16.2442 14.066 18.3883 14.0625 20.625C14.0623 20.9383 14.0811 21.2514 14.1188 21.5625H3.75C3.00476 21.5603 2.29069 21.2632 1.76372 20.7363C1.23676 20.2093 0.939726 19.4952 0.9375 18.75V6.15936L11.7094 12.45C12.1434 12.6874 12.6303 12.8118 13.125 12.8118C13.6197 12.8118 14.1066 12.6874 14.5406 12.45L25.3125 6.15936Z" fill="white"/>
<path d="M22.5 14.0625C20.7595 14.0625 19.0903 14.7539 17.8596 15.9846C16.6289 17.2153 15.9375 18.8845 15.9375 20.625C15.9375 22.3655 16.6289 24.0347 17.8596 25.2654C19.0903 26.4961 20.7595 27.1875 22.5 27.1875C22.7486 27.1875 22.9871 27.0887 23.1629 26.9129C23.3387 26.7371 23.4375 26.4986 23.4375 26.25C23.4375 26.0014 23.3387 25.7629 23.1629 25.5871C22.9871 25.4113 22.7486 25.3125 22.5 25.3125C21.5729 25.3125 20.6666 25.0376 19.8958 24.5225C19.1249 24.0074 18.5241 23.2754 18.1693 22.4188C17.8145 21.5623 17.7217 20.6198 17.9026 19.7105C18.0834 18.8012 18.5299 17.966 19.1854 17.3104C19.841 16.6549 20.6762 16.2084 21.5855 16.0276C22.4948 15.8467 23.4373 15.9395 24.2938 16.2943C25.1504 16.6491 25.8824 17.2499 26.3975 18.0208C26.9126 18.7916 27.1875 19.6979 27.1875 20.625V21.5625C27.1875 21.8111 27.0887 22.0496 26.9129 22.2254C26.7371 22.4012 26.4986 22.5 26.25 22.5C26.0014 22.5 25.7629 22.4012 25.5871 22.2254C25.4113 22.0496 25.3125 21.8111 25.3125 21.5625V20.625C25.3125 20.0687 25.1476 19.525 24.8385 19.0625C24.5295 18.5999 24.0902 18.2395 23.5763 18.0266C23.0624 17.8137 22.4969 17.758 21.9513 17.8665C21.4057 17.9751 20.9046 18.2429 20.5113 18.6363C20.1179 19.0296 19.8501 19.5307 19.7415 20.0763C19.633 20.6219 19.6887 21.1874 19.9016 21.7013C20.1145 22.2152 20.4749 22.6545 20.9375 22.9635C21.4 23.2726 21.9437 23.4375 22.5 23.4375C22.9843 23.4344 23.4594 23.3048 23.8781 23.0616C24.2022 23.578 24.6856 23.9748 25.2552 24.1921C25.8248 24.4094 26.4496 24.4353 27.0353 24.266C27.621 24.0967 28.1356 23.7412 28.5013 23.2535C28.867 22.7657 29.064 22.1721 29.0625 21.5625V20.625C29.0605 18.8851 28.3685 17.2171 27.1382 15.9868C25.9079 14.7565 24.2399 14.0645 22.5 14.0625ZM22.5 21.5625C22.3146 21.5625 22.1333 21.5075 21.9792 21.4045C21.825 21.3015 21.7048 21.1551 21.6339 20.9838C21.5629 20.8125 21.5443 20.624 21.5805 20.4421C21.6167 20.2602 21.706 20.0932 21.8371 19.9621C21.9682 19.831 22.1352 19.7417 22.3171 19.7055C22.499 19.6693 22.6875 19.6879 22.8588 19.7589C23.0301 19.8298 23.1765 19.95 23.2795 20.1042C23.3825 20.2583 23.4375 20.4396 23.4375 20.625C23.4375 20.8736 23.3387 21.1121 23.1629 21.2879C22.9871 21.4637 22.7486 21.5625 22.5 21.5625Z" fill="white"/>
</svg>
