<svg width="20" height="20" viewBox="0 0 20 20" fill="none" xmlns="http://www.w3.org/2000/svg">
<g opacity="0.6">
<path d="M6.91 9.63667H13.0933C13.4933 9.63667 13.82 9.31 13.82 8.91V2.72667C13.82 2.32667 13.4933 2 13.0933 2H6.91C6.51 2 6.18333 2.32667 6.18333 2.72667V8.91C6.18333 9.31 6.51 9.63667 6.91 9.63667ZM8.05667 5.23C8.09333 5.11667 8.18333 5.03 8.3 4.99333L9.18 4.73667L9.69667 3.97667C9.83333 3.78 10.1633 3.78 10.3 3.97667L10.8167 4.73667L11.6967 4.99333C11.8133 5.03 11.9033 5.11667 11.94 5.23C11.98 5.34667 11.9567 5.47 11.8867 5.56333L11.3267 6.29L11.35 7.21C11.3533 7.33 11.3 7.44333 11.2 7.51333C11.1367 7.56 11.0633 7.58667 10.9867 7.58667C10.9467 7.58667 10.9067 7.58 10.8667 7.56333L10 7.25333L9.13333 7.56333C9.02 7.60333 8.89333 7.58667 8.8 7.51333C8.70333 7.44333 8.64667 7.33 8.65 7.21L8.67333 6.29L8.11333 5.56333C8.04 5.47 8.01667 5.34667 8.05667 5.23ZM2.72667 18H8.91C9.31 18 9.63667 17.6733 9.63667 17.2733V11.09C9.63667 10.69 9.31 10.3633 8.91 10.3633H2.72667C2.32667 10.3633 2 10.69 2 11.09V17.2733C2 17.6733 2.32667 18 2.72667 18ZM5.81667 12C6.39528 12 6.9502 12.2299 7.35934 12.639C7.76848 13.0481 7.99833 13.6031 7.99833 14.1817C7.99833 14.7603 7.76848 15.3152 7.35934 15.7243C6.9502 16.1335 6.39528 16.3633 5.81667 16.3633C4.61333 16.3633 3.63667 15.3867 3.63667 14.1833C3.63667 12.9767 4.61333 12 5.81667 12ZM17.2733 10.3633H11.09C10.69 10.3633 10.3633 10.69 10.3633 11.09V17.2733C10.3633 17.6733 10.69 18 11.09 18H17.2733C17.6733 18 18 17.6733 18 17.2733V11.09C18 10.69 17.6733 10.3633 17.2733 10.3633ZM15.9433 16.0133C15.8733 16.12 15.76 16.1833 15.6367 16.1833H12.7267C12.6033 16.1833 12.49 16.12 12.4233 16.0133C12.3567 15.9133 12.3467 15.7833 12.3967 15.67L13.85 12.3967C13.91 12.2667 14.0367 12.1833 14.1833 12.1833C14.3267 12.1833 14.4533 12.2667 14.5133 12.3967L15.9667 15.67C16.0167 15.7833 16.0067 15.9133 15.9433 16.0133Z" fill="#4F536C"/>
</g>
</svg>
