<svg width="20" height="20" viewBox="0 0 20 20" fill="none" xmlns="http://www.w3.org/2000/svg">
<g opacity="0.6" clip-path="url(#clip0_6491_577)">
<path d="M1.15023 10.5859H4.67562V14.1211H1.15023V10.5859ZM5.85727 10.5859H9.38266V14.1211H5.85727V10.5859ZM4.67562 9.41406V8.82324C4.67562 8.49746 4.94066 8.23242 5.26645 8.23242C5.59223 8.23242 5.85727 8.49746 5.85727 8.82324V9.41406H9.38266V5.8789H1.15023V9.41406H4.67562ZM11.7941 15.293V20H14.707C15.0306 20 15.293 19.7377 15.293 19.4141V18.2373C15.293 17.9115 15.558 17.6465 15.8838 17.6465C16.2096 17.6465 16.4746 17.9115 16.4746 18.2373V19.4141C16.4746 19.7377 16.737 20 17.0605 20H19.4141C19.7377 20 20 19.7377 20 19.4141V15.293H11.7941ZM9.52297 4.70703C10.0694 4.70703 10.3184 4.02519 9.90059 3.67308L5.74312 0.168866C5.47473 -0.0573844 5.04285 -0.0560953 4.77617 0.1716L0.673789 3.67555C0.259766 4.02918 0.509844 4.70703 1.05434 4.70703H9.52297ZM19.7075 7.06054L16.3612 2.5884C16.3066 2.51548 16.2358 2.45629 16.1544 2.41551C16.0729 2.37474 15.9831 2.35351 15.892 2.35351H15.8902C15.7988 2.3538 15.7087 2.37546 15.6272 2.41677C15.5457 2.45808 15.475 2.51788 15.4207 2.5914L12.1207 7.06054H19.7075ZM10.6222 15.293H5.88398V20H10.6222V15.293ZM4.71211 15.293H0V19.4141C0 19.7377 0.262344 20 0.585938 20H4.71211V15.293ZM20 14.1211V8.23242H11.8304V14.1211H20ZM15.9152 10.0314C16.5477 10.0314 17.0605 10.5442 17.0605 11.1768C17.0605 11.8093 16.5478 12.3221 15.9152 12.3221C15.2827 12.3221 14.7698 11.8093 14.7698 11.1768C14.7698 10.5442 15.2827 10.0314 15.9152 10.0314Z" fill="#4F536C"/>
</g>
<defs>
<clipPath id="clip0_6491_577">
<rect width="20" height="20" fill="white"/>
</clipPath>
</defs>
</svg>
