<svg width="20" height="20" viewBox="0 0 20 20" fill="none" xmlns="http://www.w3.org/2000/svg">
<g opacity="0.6" clip-path="url(#clip0_6491_592)">
<path d="M19.3333 16H18.6666V14.6667C18.6666 13.1966 17.47 12 16 12H15.97C15.6557 8.48941 12.8765 5.68121 9.33328 5.36355V3.87719C9.54285 3.95191 9.76512 4 9.99996 4C11.1028 4 12 3.10285 12 2C12 0.897148 11.1029 0 10 0C9.4859 0 9.02133 0.200352 8.66668 0.520195C8.31199 0.200352 7.84742 0 7.33332 0C6.23047 0 5.33332 0.897148 5.33332 2C5.33332 3.10285 6.23047 4 7.33332 4C7.56816 4 7.79043 3.95191 8 3.87719V5.36395C4.2682 5.70203 1.33332 8.84844 1.33332 12.6666V16H0.66668C0.298164 16 0 16.2982 0 16.6667C0 17.0352 0.298164 17.3334 0.66668 17.3334H2.66668C2.66668 18.8034 3.86328 20 5.33332 20C6.80336 20 8 18.8034 8 17.3333H12C12 18.8034 13.1966 20 14.6667 20C16.1367 20 17.3334 18.8034 17.3334 17.3333H19.3334C19.7018 17.3333 20 17.0352 20 16.6666C20 16.2981 19.7018 16 19.3333 16ZM10 1.33332C10.3672 1.33332 10.6667 1.63277 10.6667 2C10.6667 2.36723 10.3672 2.66668 10 2.66668C9.63281 2.66668 9.33332 2.36719 9.33332 2C9.33332 1.63281 9.63281 1.33332 10 1.33332ZM5.33332 18.6667C4.59762 18.6667 4 18.069 4 17.3334C4 16.6197 4.57852 16 5.33332 16C6.08398 16 6.66664 16.6207 6.66664 17.3334C6.66668 18.069 6.06902 18.6667 5.33332 18.6667ZM8 13.3333H4.66668C4.2982 13.3333 4 13.0352 4 12.6666C4 10.322 5.74445 8.39434 8 8.06734V13.3333ZM7.33332 2.66668C6.96613 2.66668 6.66664 2.36723 6.66664 2C6.66664 1.63277 6.96609 1.33332 7.33332 1.33332C7.70055 1.33332 8 1.63281 8 2C8 2.36719 7.70055 2.66668 7.33332 2.66668ZM12.6667 13.3333H9.33336V8.06738C11.5889 8.39437 13.3334 10.322 13.3334 12.6667C13.3333 13.0352 13.0352 13.3333 12.6667 13.3333ZM14.6667 18.6667C13.931 18.6667 13.3334 18.069 13.3334 17.3334C13.3334 16.6197 13.9119 16 14.6667 16C15.4173 16 16 16.6207 16 17.3334C16 18.069 15.4023 18.6667 14.6667 18.6667Z" fill="#4F536C"/>
</g>
<defs>
<clipPath id="clip0_6491_592">
<rect width="20" height="20" fill="white"/>
</clipPath>
</defs>
</svg>
