<svg width="60" height="60" viewBox="0 0 60 60" fill="none" xmlns="http://www.w3.org/2000/svg">
<path d="M51.8536 32.3718L48.1973 23.3765C48.0265 22.9534 47.7329 22.5911 47.3544 22.3363C46.9759 22.0815 46.5297 21.9459 46.0734 21.9468H40.9008V18.5221C40.9002 17.9326 40.6657 17.3675 40.2489 16.9506C39.8321 16.5337 39.267 16.2991 38.6775 16.2984H12.8339C12.2444 16.2991 11.6793 16.5337 11.2625 16.9506C10.8457 17.3675 10.6112 17.9326 10.6106 18.5221V24.7565H8.90625C8.68869 24.7565 8.48004 24.8429 8.3262 24.9968C8.17236 25.1506 8.08594 25.3593 8.08594 25.5768C8.08594 25.7944 8.17236 26.003 8.3262 26.1569C8.48004 26.3107 8.68869 26.3971 8.90625 26.3971H10.6106V38.5425C10.6114 39.132 10.8459 39.6971 11.2628 40.1139C11.6797 40.5307 12.2449 40.7651 12.8344 40.7657H15.2602C15.4506 41.7701 15.9857 42.6764 16.773 43.3284C17.5603 43.9804 18.5504 44.3372 19.5727 44.3372C20.5949 44.3372 21.5851 43.9804 22.3723 43.3284C23.1596 42.6764 23.6947 41.7701 23.8852 40.7657H41.2734C41.4639 41.7701 41.999 42.6764 42.7862 43.3284C43.5735 43.9804 44.5637 44.3372 45.5859 44.3372C46.6082 44.3372 47.5983 43.9804 48.3856 43.3284C49.1729 42.6764 49.708 41.7701 49.8984 40.7657H51.0938C51.3113 40.7657 51.52 40.6793 51.6738 40.5255C51.8276 40.3716 51.9141 40.163 51.9141 39.9454V32.6812C51.914 32.5752 51.8935 32.4701 51.8536 32.3718ZM49.875 31.8604L44.4984 31.8375L44.5266 26.864H47.8416L49.875 31.8604ZM17.752 24.7579H12.2512V18.5236C12.2512 18.369 12.3126 18.2207 12.4219 18.1114C12.5311 18.002 12.6793 17.9406 12.8339 17.9404H38.6775C38.832 17.9407 38.9802 18.0022 39.0894 18.1115C39.1986 18.2208 39.26 18.369 39.2602 18.5236V33.217H12.2512V26.3986H17.752C17.9696 26.3986 18.1782 26.3121 18.3321 26.1583C18.4859 26.0045 18.5723 25.7958 18.5723 25.5782C18.5723 25.3607 18.4859 25.152 18.3321 24.9982C18.1782 24.8444 17.9696 24.7579 17.752 24.7579ZM12.2531 38.5439V34.8576H39.2578V39.1265H23.8875C23.696 38.123 23.1606 37.2177 22.3734 36.5666C21.5862 35.9154 20.5966 35.5591 19.575 35.5591C18.5534 35.5591 17.5638 35.9154 16.7766 36.5666C15.9894 37.2177 15.454 38.123 15.2625 39.1265H12.8363C12.6817 39.1264 12.5335 39.065 12.4242 38.9558C12.3149 38.8465 12.2534 38.6984 12.2531 38.5439ZM19.575 42.6984C19.0315 42.6979 18.5002 42.5364 18.0485 42.2341C17.5968 41.9318 17.2447 41.5024 17.037 41.0002C16.8292 40.4979 16.7749 39.9453 16.8811 39.4123C16.9872 38.8792 17.249 38.3895 17.6334 38.0052C18.0177 37.6208 18.5073 37.3591 19.0404 37.2529C19.5735 37.1467 20.1261 37.201 20.6283 37.4088C21.1306 37.6166 21.56 37.9686 21.8623 38.4203C22.1645 38.8721 22.3261 39.4033 22.3266 39.9468C22.3258 40.6764 22.0357 41.3758 21.5198 41.8917C21.004 42.4075 20.3045 42.6977 19.575 42.6984ZM45.5859 42.6984C45.0424 42.6979 44.5112 42.5364 44.0594 42.2341C43.6077 41.9318 43.2557 41.5024 43.0479 41.0002C42.8401 40.4979 42.7858 39.9453 42.892 39.4123C42.9982 38.8792 43.2599 38.3895 43.6443 38.0052C44.0286 37.6208 44.5183 37.3591 45.0514 37.2529C45.5844 37.1467 46.137 37.201 46.6393 37.4088C47.1415 37.6166 47.5709 37.9686 47.8732 38.4203C48.1755 38.8721 48.337 39.4033 48.3375 39.9468C48.3366 40.6763 48.0465 41.3757 47.5306 41.8915C47.0148 42.4074 46.3154 42.6975 45.5859 42.6984ZM49.8984 39.1265C49.7069 38.123 49.1715 37.2177 48.3843 36.5666C47.5972 35.9154 46.6075 35.5591 45.5859 35.5591C44.5643 35.5591 43.5747 35.9154 42.7875 36.5666C42.0004 37.2177 41.4649 38.123 41.2734 39.1265H40.8984V23.5875H46.0734C46.2032 23.5872 46.3301 23.6259 46.4377 23.6984C46.5453 23.7709 46.6287 23.874 46.6772 23.9943L47.1769 25.2234H44.5266C44.0841 25.2239 43.66 25.3999 43.3471 25.7127C43.0343 26.0256 42.8583 26.4497 42.8578 26.8921V31.8375C42.8583 32.2799 43.0343 32.7041 43.3471 33.0169C43.66 33.3297 44.0841 33.5057 44.5266 33.5062H50.2734V39.1265H49.8984ZM8.90625 14.0264H17.2898C17.5074 14.0264 17.7161 13.9399 17.8699 13.7861C18.0237 13.6323 18.1102 13.4236 18.1102 13.2061C18.1102 12.9885 18.0237 12.7798 17.8699 12.626C17.7161 12.4722 17.5074 12.3857 17.2898 12.3857H8.90625C8.68869 12.3857 8.48004 12.4722 8.3262 12.626C8.17236 12.7798 8.08594 12.9885 8.08594 13.2061C8.08594 13.4236 8.17236 13.6323 8.3262 13.7861C8.48004 13.9399 8.68869 14.0264 8.90625 14.0264Z" fill="white"/>
<path d="M23.9668 21.3243C23.9669 21.2166 23.9457 21.1099 23.9045 21.0103C23.8633 20.9108 23.8029 20.8203 23.7267 20.7441C23.6505 20.668 23.56 20.6075 23.4605 20.5663C23.3609 20.5251 23.2542 20.504 23.1465 20.504H14.5098C14.2922 20.504 14.0836 20.5904 13.9297 20.7443C13.7759 20.8981 13.6895 21.1068 13.6895 21.3243C13.6895 21.5419 13.7759 21.7505 13.9297 21.9044C14.0836 22.0582 14.2922 22.1446 14.5098 22.1446H23.1465C23.364 22.1446 23.5727 22.0582 23.7265 21.9044C23.8804 21.7505 23.9668 21.5419 23.9668 21.3243ZM21.6385 14.0264H23.3902C23.6078 14.0264 23.8164 13.9399 23.9703 13.7861C24.1241 13.6323 24.2105 13.4236 24.2105 13.2061C24.2105 12.9885 24.1241 12.7798 23.9703 12.626C23.8164 12.4722 23.6078 12.3857 23.3902 12.3857H21.6385C21.421 12.3857 21.2123 12.4722 21.0585 12.626C20.9046 12.7798 20.8182 12.9885 20.8182 13.2061C20.8182 13.4236 20.9046 13.6323 21.0585 13.7861C21.2123 13.9399 21.421 14.0264 21.6385 14.0264Z" fill="white"/>
</svg>
