<svg width="50" height="50" viewBox="0 0 50 50" fill="none" xmlns="http://www.w3.org/2000/svg">
<path d="M46.4887 21.7992C46.3106 16.3644 44.0651 11.2025 40.2105 7.36714C36.1457 3.30151 30.7434 1.06323 24.9996 1.06323C13.3988 1.06323 3.91992 10.2968 3.51133 21.7992C2.61683 22.1954 1.85644 22.8425 1.3223 23.6622C0.788163 24.4818 0.503204 25.4388 0.501953 26.4171V32.0906C0.503401 33.4303 1.03625 34.7147 1.98358 35.6621C2.93091 36.6094 4.21535 37.1423 5.55508 37.1437C6.42189 37.1427 7.25291 36.7979 7.86584 36.1849C8.47878 35.572 8.82358 34.741 8.82461 33.8742V24.6328C8.82461 22.9398 7.52617 21.5593 5.87539 21.3953C6.48477 11.3742 14.827 3.40698 24.9996 3.40698C30.1184 3.40698 34.9316 5.40229 38.5543 9.02495C41.8809 12.3515 43.8277 16.6874 44.1207 21.396C42.4715 21.5617 41.1754 22.9414 41.1754 24.6328V33.8734C41.1754 35.5804 42.4941 36.9695 44.1645 37.114V39.4492C44.163 40.7136 43.66 41.9258 42.7658 42.8199C41.8717 43.7139 40.6594 44.2167 39.3949 44.2179H35.8629C35.6248 43.5237 35.1752 42.9214 34.5773 42.4957C33.9794 42.0701 33.2632 41.8423 32.5293 41.8445H28.8887C28.366 41.8445 27.8645 41.9554 27.4051 42.1695C26.79 42.4537 26.269 42.9078 25.9035 43.4784C25.5381 44.049 25.3434 44.7122 25.3426 45.3898C25.3426 46.3382 25.7121 47.2289 26.3816 47.8953C26.7098 48.2261 27.1004 48.4884 27.5308 48.667C27.9611 48.8457 28.4227 48.9371 28.8887 48.9359H32.5293C34.0387 48.9359 35.3691 47.9601 35.8652 46.5617H39.3949C43.3176 46.5617 46.5082 43.371 46.5082 39.4492V36.6968C47.3974 36.2984 48.1525 35.6515 48.6828 34.8341C49.2131 34.0166 49.4959 33.0634 49.4973 32.089V26.4156C49.4973 24.3578 48.2582 22.5859 46.4887 21.7992ZM6.48008 24.6328V33.8734C6.48008 34.3835 6.06523 34.7992 5.5543 34.7992C4.83598 34.7983 4.14732 34.5126 3.63939 34.0047C3.13147 33.4968 2.84575 32.8081 2.84492 32.0898V26.4164C2.84575 25.698 3.13147 25.0094 3.63939 24.5015C4.14732 23.9935 4.83598 23.7078 5.5543 23.707C6.06523 23.707 6.48008 24.1226 6.48008 24.6328ZM33.7051 45.6414C33.6469 45.9104 33.4985 46.1515 33.2845 46.3247C33.0705 46.4979 32.8038 46.5928 32.5285 46.5937H28.8879C28.5676 46.5937 28.2668 46.4687 28.0371 46.239C27.9253 46.128 27.8367 45.9959 27.7763 45.8504C27.716 45.7049 27.6851 45.5489 27.6855 45.3914C27.6864 45.0728 27.8133 44.7675 28.0387 44.5424C28.264 44.3172 28.5693 44.1904 28.8879 44.1898H32.5285C32.8488 44.1898 33.1496 44.314 33.3785 44.5437C33.6051 44.7695 33.7301 45.071 33.7301 45.3914C33.7309 45.4773 33.7215 45.5632 33.7051 45.6414ZM47.1535 32.0898C47.1527 32.8081 46.867 33.4968 46.359 34.0047C45.8511 34.5126 45.1625 34.7983 44.4441 34.7992C44.1987 34.799 43.9633 34.7014 43.7897 34.5278C43.6162 34.3542 43.5186 34.1189 43.5184 33.8734V24.6328C43.5184 24.1226 43.9332 23.707 44.4441 23.707C45.1625 23.7078 45.8511 23.9935 46.359 24.5015C46.867 25.0094 47.1527 25.698 47.1535 26.4164V32.0898Z" fill="white"/>
<path d="M32.5875 32.4937C33.904 32.4922 35.1662 31.9686 36.0971 31.0377C37.0281 30.1068 37.5517 28.8446 37.5531 27.5281V17.4101C37.5531 16.0866 37.0359 14.8398 36.0969 13.9007C35.1578 12.9616 33.9117 12.4445 32.5875 12.4445H17.4109C16.0944 12.4459 14.8322 12.9695 13.9013 13.9005C12.9704 14.8314 12.4468 16.0936 12.4453 17.4101V27.5281C12.4468 28.8446 12.9704 30.1068 13.9013 31.0377C14.8322 31.9686 16.0944 32.4922 17.4109 32.4937H17.5039V35.1156C17.5024 35.4357 17.5641 35.753 17.6856 36.0492C17.8072 36.3454 17.986 36.6146 18.212 36.8415C18.4379 37.0683 18.7065 37.2482 19.0022 37.3708C19.2979 37.4935 19.615 37.5565 19.9352 37.5562C20.2551 37.5568 20.5719 37.493 20.8666 37.3686C21.1614 37.2442 21.4281 37.0617 21.6508 36.832L26.0125 32.4937H32.5875ZM24.7039 30.4906L19.9836 35.1851C19.9625 35.207 19.9469 35.2234 19.9023 35.2038C19.8484 35.182 19.8484 35.1468 19.8484 35.1156V31.3218C19.8484 31.011 19.725 30.7129 19.5052 30.4932C19.2854 30.2734 18.9874 30.1499 18.6766 30.1499H17.4117C16.7166 30.1491 16.0502 29.8726 15.5587 29.3811C15.0672 28.8896 14.7907 28.2232 14.7898 27.5281V17.4101C14.7907 16.715 15.0672 16.0486 15.5587 15.5571C16.0502 15.0655 16.7166 14.789 17.4117 14.7882H32.5883C33.2867 14.7882 33.9438 15.0616 34.4406 15.5577C34.9375 16.0546 35.2102 16.7124 35.2102 17.4101V27.5281C35.2093 28.2232 34.9328 28.8896 34.4413 29.3811C33.9498 29.8726 33.2834 30.1491 32.5883 30.1499H25.5305C25.2203 30.1499 24.9234 30.2726 24.7039 30.4906Z" fill="white"/>
<path d="M19.307 20.9272C18.3539 20.9272 17.5781 21.7038 17.5781 22.6562C17.5781 23.6085 18.3547 24.3851 19.307 24.3851C20.2609 24.3851 21.0375 23.6085 21.0375 22.6562C21.0375 21.7038 20.2617 20.9272 19.307 20.9272ZM24.9992 20.9272C24.0461 20.9272 23.2703 21.7038 23.2703 22.6562C23.2703 23.6085 24.0469 24.3851 24.9992 24.3851C25.9539 24.3851 26.7297 23.6085 26.7297 22.6562C26.7297 21.7038 25.9539 20.9272 24.9992 20.9272ZM30.6914 20.9272C29.7383 20.9272 28.9625 21.7038 28.9625 22.6562C28.9625 23.6085 29.7391 24.3851 30.6914 24.3851C31.6453 24.3851 32.4219 23.6085 32.4219 22.6562C32.4219 21.7038 31.6453 20.9272 30.6914 20.9272Z" fill="white"/>
</svg>
