<svg width="20" height="20" viewBox="0 0 20 20" fill="none" xmlns="http://www.w3.org/2000/svg">
<path d="M17.6191 9.52379H16.1905V5.71429C16.1905 4.66192 15.3381 3.80951 14.2857 3.80951H10.4762V2.38094C10.4762 1.06665 9.40951 0 8.09522 0C6.78094 0 5.71429 1.06665 5.71429 2.38094V3.80951H1.90478C0.852411 3.80951 0.00955357 4.66188 0.00955357 5.71429L0.00477679 9.33335H1.42857C2.84763 9.33335 4 10.4857 4 11.9048C4 13.3238 2.84763 14.4762 1.42857 14.4762H0.00477679L0 18.0952C0 19.1476 0.852366 20 1.90478 20H5.52384V18.5714C5.52384 17.1524 6.67621 16 8.09527 16C9.51433 16 10.6667 17.1524 10.6667 18.5714V20H14.2857C15.3381 20 16.1905 19.1476 16.1905 18.0952V14.2857H17.6191C18.9333 14.2857 20 13.2191 20 11.9048C20 10.5905 18.9333 9.52379 17.6191 9.52379Z" fill="#4F536C"/>
</svg>
