<svg width="60" height="60" viewBox="0 0 60 60" fill="none" xmlns="http://www.w3.org/2000/svg">
<path d="M43.418 26.158V13.522C43.418 13.2568 43.3126 13.0024 43.1251 12.8149C42.9376 12.6273 42.6832 12.522 42.418 12.522C39.661 12.522 37.418 10.279 37.418 7.52197C37.418 7.25676 37.3126 7.0024 37.1251 6.81487C36.9376 6.62733 36.6832 6.52197 36.418 6.52197H12.999C12.7338 6.52197 12.4794 6.62733 12.2919 6.81487C12.1044 7.0024 11.999 7.25676 11.999 7.52197C11.9977 8.84748 11.4706 10.1183 10.5334 11.0557C9.59625 11.9931 8.3255 12.5204 7 12.522C6.73478 12.522 6.48043 12.6273 6.29289 12.8149C6.10536 13.0024 6 13.2568 6 13.522V32.042C6 42.359 23.553 50.34 24.3 50.675C24.4285 50.7325 24.5677 50.7622 24.7085 50.7622C24.8493 50.7622 24.9885 50.7325 25.117 50.675C25.199 50.639 26.991 49.832 29.44 48.425C31.985 51.508 35.835 53.477 40.136 53.477C47.781 53.477 54 47.257 54 39.613C54 33.101 49.48 27.638 43.418 26.158ZM24.71 48.659C22.112 47.417 8 40.287 8 32.042V14.45C9.49462 14.2318 10.8789 13.537 11.9469 12.4689C13.015 11.4009 13.7098 10.0166 13.928 8.52197H35.489C35.7074 10.0167 36.4024 11.401 37.4706 12.469C38.5389 13.5371 39.9233 14.2318 41.418 14.45V25.813C40.995 25.774 40.568 25.748 40.136 25.748C32.491 25.748 26.272 31.968 26.272 39.612C26.272 42.236 27.018 44.684 28.29 46.779C27.1198 47.4487 25.9257 48.0758 24.71 48.659ZM40.136 51.477C33.594 51.477 28.272 46.155 28.272 39.613C28.272 33.071 33.594 27.749 40.136 27.749C46.678 27.749 52 33.071 52 39.613C52 46.155 46.678 51.477 40.136 51.477Z" fill="white"/>
<path d="M40.1357 34.581C41.2467 34.581 42.1507 35.485 42.1507 36.597C42.1507 36.8622 42.2561 37.1166 42.4436 37.3041C42.6312 37.4916 42.8855 37.597 43.1507 37.597C43.416 37.597 43.6703 37.4916 43.8579 37.3041C44.0454 37.1166 44.1507 36.8622 44.1507 36.597C44.1507 34.73 42.8647 33.17 41.1357 32.722V32.028C41.1357 31.7628 41.0304 31.5084 40.8428 31.3209C40.6553 31.1334 40.401 31.028 40.1357 31.028C39.8705 31.028 39.6162 31.1334 39.4286 31.3209C39.2411 31.5084 39.1357 31.7628 39.1357 32.028V32.722C37.4057 33.17 36.1197 34.73 36.1197 36.597C36.1208 37.6618 36.5443 38.6827 37.2972 39.4356C38.0501 40.1885 39.071 40.6119 40.1357 40.613C41.2467 40.613 42.1507 41.517 42.1507 42.629C42.1507 43.741 41.2467 44.645 40.1357 44.645C39.6012 44.6445 39.0888 44.4319 38.7108 44.0539C38.3328 43.676 38.1203 43.1635 38.1197 42.629C38.1197 42.3638 38.0144 42.1094 37.8269 41.9219C37.6393 41.7344 37.385 41.629 37.1197 41.629C36.8545 41.629 36.6002 41.7344 36.4126 41.9219C36.2251 42.1094 36.1197 42.3638 36.1197 42.629C36.1197 44.496 37.4057 46.056 39.1357 46.504V47.198C39.1357 47.4632 39.2411 47.7176 39.4286 47.9051C39.6162 48.0926 39.8705 48.198 40.1357 48.198C40.401 48.198 40.6553 48.0926 40.8428 47.9051C41.0304 47.7176 41.1357 47.4632 41.1357 47.198V46.504C42.8647 46.056 44.1507 44.496 44.1507 42.629C44.1497 41.5644 43.7264 40.5437 42.9737 39.7908C42.221 39.0379 41.2004 38.6143 40.1357 38.613C39.6012 38.6125 39.0888 38.3999 38.7108 38.0219C38.3328 37.644 38.1203 37.1315 38.1197 36.597C38.1197 35.485 39.0237 34.581 40.1357 34.581ZM29.6627 22.81C29.4752 22.6225 29.2209 22.5172 28.9557 22.5172C28.6906 22.5172 28.4363 22.6225 28.2487 22.81L21.6107 29.448L18.6587 26.496C18.5665 26.4005 18.4562 26.3243 18.3341 26.2719C18.2121 26.2195 18.0809 26.1919 17.9481 26.1907C17.8154 26.1896 17.6837 26.2149 17.5608 26.2652C17.4379 26.3155 17.3262 26.3897 17.2323 26.4836C17.1385 26.5775 17.0642 26.6891 17.0139 26.812C16.9636 26.9349 16.9383 27.0666 16.9395 27.1994C16.9406 27.3322 16.9682 27.4634 17.0206 27.5854C17.073 27.7074 17.1492 27.8178 17.2447 27.91L20.9037 31.569C21.0913 31.7565 21.3456 31.8618 21.6107 31.8618C21.8759 31.8618 22.1302 31.7565 22.3177 31.569L29.6627 24.224C29.8502 24.0365 29.9555 23.7822 29.9555 23.517C29.9555 23.2518 29.8502 22.9975 29.6627 22.81Z" fill="white"/>
</svg>
