<svg width="20" height="20" viewBox="0 0 20 20" fill="none" xmlns="http://www.w3.org/2000/svg">
<path d="M10 6.64062C11.8338 6.64062 13.3203 5.15407 13.3203 3.32031C13.3203 1.48655 11.8338 0 10 0C8.16624 0 6.67969 1.48655 6.67969 3.32031C6.67969 5.15407 8.16624 6.64062 10 6.64062Z" fill="#5C707E"/>
<path d="M12.4398 7.09045C11.7368 7.54698 10.8989 7.81252 10 7.81252C9.10113 7.81252 8.2632 7.54698 7.5602 7.09045C6.77862 7.38917 6.05859 7.82898 5.43598 8.38795L10 10.0995L14.564 8.38795C13.9414 7.82896 13.2214 7.38916 12.4398 7.09045ZM17.0312 12.1094H16.6406C16.317 12.1094 16.0547 12.3717 16.0547 12.6953V14.2578C16.0547 14.5814 16.317 14.8438 16.6406 14.8438H17.0312C17.7863 14.8438 18.3984 14.2317 18.3984 13.4766C18.3984 12.7215 17.7863 12.1094 17.0312 12.1094ZM3.41625 9.15143C3.33843 9.20536 3.27484 9.27734 3.23092 9.36121C3.187 9.44509 3.16406 9.53836 3.16406 9.63303V10.9375H3.35938C4.32863 10.9375 5.11719 11.7261 5.11719 12.6953V14.2578C5.11719 15.2271 4.32863 16.0156 3.35938 16.0156H3.16406V17.2502C3.16406 17.3695 3.20046 17.4859 3.2684 17.584C3.33634 17.682 3.43258 17.757 3.54426 17.7989L9.41406 20V11.1313L3.95574 9.0844C3.8671 9.05112 3.77171 9.03984 3.67775 9.05151C3.58378 9.06319 3.49405 9.09747 3.41625 9.15143Z" fill="#5C707E"/>
<path d="M14.8828 14.2578V12.6953C14.8828 11.726 15.6714 10.9375 16.6406 10.9375H16.8359V9.633C16.8359 9.53832 16.813 9.44506 16.7691 9.36118C16.7252 9.27731 16.6616 9.20533 16.5837 9.1514C16.5059 9.09747 16.4162 9.0632 16.3222 9.05153C16.2283 9.03986 16.1329 9.05112 16.0443 9.08437L10.5859 11.1312V20L16.4557 17.7988C16.5674 17.7569 16.6637 17.682 16.7316 17.5839C16.7995 17.4859 16.8359 17.3695 16.8359 17.2502V16.0156H16.6406C15.6714 16.0156 14.8828 15.2271 14.8828 14.2578ZM3.94531 14.2578V12.6953C3.94531 12.3717 3.68297 12.1094 3.35938 12.1094H2.96875C2.21367 12.1094 1.60156 12.7215 1.60156 13.4766C1.60156 14.2316 2.21367 14.8437 2.96875 14.8437H3.35938C3.68297 14.8437 3.94531 14.5814 3.94531 14.2578Z" fill="#5C707E"/>
</svg>
