<svg width="30" height="30" viewBox="0 0 30 30" fill="none" xmlns="http://www.w3.org/2000/svg">
<g clip-path="url(#clip0_6491_520)">
<path fill-rule="evenodd" clip-rule="evenodd" d="M6.93797 7.96091C7.08809 8.28066 7.40701 8.48545 7.7608 8.48545H12.1805V10.0467C12.1805 10.5489 12.5879 10.9558 13.0917 10.9558C13.5929 10.9558 14.0003 10.5489 14.0003 10.0467V8.48545H14.4185C14.9223 8.48545 15.327 8.07857 15.327 7.57607C15.327 7.0741 14.9223 6.66722 14.4185 6.66722H14.0003V1.21138C14.0003 0.828942 13.7618 0.487457 13.4026 0.357496C13.0435 0.226715 12.6388 0.334703 12.3949 0.627907L7.06395 6.99254C6.83607 7.26295 6.78785 7.64093 6.93797 7.96091ZM30 14.9423C30 18.9476 28.4404 22.7167 25.608 25.549C22.7754 28.3816 19.0059 29.9423 15 29.9423C10.9941 29.9423 7.22461 28.3816 4.39201 25.549C1.55965 22.7167 0 18.9476 0 14.9423C0 14.1896 0.610313 13.5784 1.36312 13.5784C2.11734 13.5784 2.72625 14.1884 2.72625 14.9423C2.72625 21.7087 8.23389 27.2149 14.9999 27.2149C21.7661 27.2149 27.2737 21.7087 27.2737 14.9423C27.2737 8.80502 22.6918 3.56761 16.6029 2.77361C15.858 2.67646 15.3322 1.99015 15.4283 1.2456C15.5246 0.500348 16.2116 -0.0281091 16.9564 0.0691565C20.5467 0.537965 23.839 2.29613 26.2381 5.00738C28.6656 7.75068 30 11.2793 30 14.9423ZM12.1804 3.71304V6.66716H9.70928L12.1804 3.71304ZM16.7824 23.0242C16.5117 23.4469 16.6349 24.0094 17.0584 24.2799C17.2038 24.3736 17.3732 24.4235 17.5462 24.4235C17.8464 24.4235 18.1385 24.2759 18.3127 24.0049L23.9733 15.1696C24.1529 14.8892 24.1636 14.5341 24.0054 14.2427C23.9268 14.0997 23.8112 13.9803 23.6707 13.8972C23.5302 13.814 23.37 13.7701 23.2068 13.77H18.0393C17.5354 13.77 17.1308 14.1768 17.1308 14.6791C17.1308 15.1814 17.5355 15.5882 18.0393 15.5882H21.545L16.7824 23.0242ZM21.5423 6.31877C21.8961 6.6739 21.8961 7.24959 21.5423 7.60478L8.14137 21.0058C7.96184 21.1832 7.73133 21.2719 7.49813 21.2719C7.26498 21.2719 7.03178 21.1832 6.85488 21.0058C6.50109 20.6506 6.50109 20.0752 6.85488 19.7201L20.2559 6.31877C20.6096 5.96363 21.1859 5.96363 21.5423 6.31877ZM5.59518 4.41423C5.82568 3.5716 5.68096 2.93638 5.16363 2.52681C4.58203 2.0682 3.61986 1.98757 2.9659 2.34265C2.47008 2.61254 2.25029 3.07888 2.31463 3.72834C2.36021 4.22843 1.9957 4.67287 1.49449 4.72056C0.995977 4.76773 0.551074 4.4024 0.502793 3.90283C0.371484 2.51984 0.950391 1.36923 2.09754 0.74609C3.38139 0.046012 5.14494 0.195602 6.29203 1.10123C7.38557 1.96718 7.77152 3.34941 7.3507 4.89318C7.06658 5.93527 6.091 6.69511 4.96529 7.57525C4.35422 8.05074 3.69756 8.56261 3.14812 9.13754H6.91383C7.41504 9.13754 7.82244 9.54435 7.82244 10.0467C7.82244 10.5489 7.41504 10.9558 6.91383 10.9558H1.38188C1.22792 10.9555 1.07657 10.9161 0.941967 10.8414C0.807368 10.7667 0.693928 10.659 0.61226 10.5285C0.530593 10.398 0.483367 10.2489 0.475003 10.0952C0.466638 9.94146 0.497408 9.78813 0.564434 9.64953C1.30418 8.12474 2.655 7.07117 3.84498 6.14222C4.64367 5.5182 5.47189 4.87332 5.59518 4.41423Z" fill="white"/>
</g>
<defs>
<clipPath id="clip0_6491_520">
<rect width="30" height="30" fill="white"/>
</clipPath>
</defs>
</svg>
