<svg width="20" height="20" viewBox="0 0 20 20" fill="none" xmlns="http://www.w3.org/2000/svg">
<g opacity="0.6" clip-path="url(#clip0_6491_597)">
<path d="M10 8.20337C10.3236 8.20337 10.5859 7.94104 10.5859 7.61743C10.5859 7.29383 10.3236 7.03149 10 7.03149C9.6764 7.03149 9.41406 7.29383 9.41406 7.61743C9.41406 7.94104 9.6764 8.20337 10 8.20337Z" fill="#4F536C"/>
<path d="M7.19219 7.93967L5.99924 9.13262L2.64774 5.76354C3.84709 6.55118 5.72069 7.52159 7.19219 7.93967ZM9.24294 6.0315C8.83552 6.22681 8.51482 6.57407 8.35506 6.99984C6.80306 6.78524 4.60157 5.62948 3.2907 4.78387L2.38329 4.18817V0.586284C2.38329 0.0648083 3.0157 -0.195734 3.38366 0.172228L9.24294 6.0315ZM11.8542 0.264805C11.0453 1.50326 10.0969 3.34049 9.67808 4.80926L8.48514 3.61631L11.8542 0.264805ZM17.4459 1.00073L11.5863 6.86C11.3913 6.45337 11.0449 6.13306 10.6203 5.97291C10.8302 4.44059 11.994 2.18922 12.8339 0.907762L13.4292 0.000356376H17.0315C17.5526 0.000356376 17.8139 0.632377 17.4459 1.00073ZM17.3529 9.47128C16.1603 8.68802 14.2931 7.71803 12.8081 7.29515L14.0014 6.1022L17.3529 9.47128ZM17.6174 11.0463V14.6485C17.6174 15.1724 16.9838 15.4294 16.617 15.063L10.7578 9.20332C11.1648 9.0084 11.4855 8.66075 11.6456 8.23537C13.1982 8.44888 15.4028 9.60769 16.71 10.451L17.6174 11.0463ZM9.38317 9.26308C9.1527 10.9697 7.7828 13.388 7.1668 14.3271L6.57111 15.2345H2.96922C2.44774 15.2345 2.1872 14.6021 2.55477 14.2341L8.41443 8.37482C8.60974 8.78223 8.95739 9.10293 9.38317 9.26308ZM11.5156 11.6185L8.14647 14.97C8.96978 13.7134 9.91296 11.8652 10.323 10.4256L11.5156 11.6185Z" fill="#4F536C"/>
<path d="M11.5156 11.6185L8.14648 14.97C8.96979 13.7134 9.91298 11.8652 10.323 10.4255L11.5156 11.6185ZM10.5863 14.2048V19.4141C10.5863 19.7375 10.3238 20 10.0004 20C9.67693 20 9.41443 19.7375 9.41443 19.4141V15.3766L10.5863 14.2048Z" fill="#4F536C"/>
</g>
<defs>
<clipPath id="clip0_6491_597">
<rect width="20" height="20" fill="white"/>
</clipPath>
</defs>
</svg>
