<svg width="156" height="50" viewBox="0 0 156 50" fill="none" xmlns="http://www.w3.org/2000/svg">
<path d="M148.501 38.0016C146.82 38.0016 145.374 37.6475 144.161 36.9391C142.956 36.2233 142.027 35.2124 141.374 33.9064C140.722 32.5929 140.396 31.0397 140.396 29.2466C140.396 27.4978 140.722 25.963 141.374 24.6422C142.027 23.3213 142.945 22.292 144.129 21.5541C145.321 20.8162 146.718 20.4473 148.32 20.4473C149.398 20.4473 150.402 20.628 151.331 20.9896C152.267 21.3438 153.082 21.8788 153.777 22.5945C154.479 23.3103 155.025 24.2105 155.415 25.2952C155.805 26.3725 156 27.6343 156 29.0806V30.3756H142.204V27.4535H151.735C151.735 26.7747 151.593 26.1733 151.309 25.6494C151.026 25.1255 150.632 24.716 150.129 24.4208C149.632 24.1183 149.054 23.967 148.395 23.967C147.707 23.967 147.097 24.133 146.565 24.4651C146.04 24.7897 145.629 25.2288 145.331 25.7822C145.033 26.3282 144.881 26.937 144.874 27.6085V30.3866C144.874 31.2278 145.023 31.9546 145.321 32.5671C145.625 33.1795 146.054 33.6518 146.608 33.9838C147.161 34.3159 147.817 34.4819 148.575 34.4819C149.079 34.4819 149.54 34.4081 149.958 34.2605C150.377 34.113 150.735 33.8916 151.033 33.5964C151.331 33.3013 151.557 32.9397 151.713 32.5117L155.905 32.7995C155.692 33.8473 155.256 34.7623 154.596 35.5445C153.944 36.3193 153.1 36.9243 152.064 37.3597C151.036 37.7877 149.848 38.0016 148.501 38.0016Z" fill="#012E4A"/>
<path d="M137.425 15V37.6679H132.894V15H137.425Z" fill="#012E4A"/>
<path d="M119.565 32.7757L119.576 27.1198H120.235L125.469 20.667H130.67L123.639 29.2117H122.565L119.565 32.7757ZM115.459 37.6679V15H119.99V37.6679H115.459ZM125.671 37.6679L120.863 30.2632L123.884 26.9317L130.979 37.6679H125.671Z" fill="#012E4A"/>
<path d="M104.47 38.0016C102.818 38.0016 101.389 37.6364 100.184 36.9059C98.9852 36.168 98.0597 35.1423 97.4073 33.8289C96.7549 32.5081 96.4287 30.9769 96.4287 29.2355C96.4287 27.4793 96.7549 25.9445 97.4073 24.6311C98.0597 23.3103 98.9852 22.2846 100.184 21.5541C101.389 20.8162 102.818 20.4473 104.47 20.4473C106.123 20.4473 107.548 20.8162 108.747 21.5541C109.952 22.2846 110.881 23.3103 111.533 24.6311C112.186 25.9445 112.512 27.4793 112.512 29.2355C112.512 30.9769 112.186 32.5081 111.533 33.8289C110.881 35.1423 109.952 36.168 108.747 36.9059C107.548 37.6364 106.123 38.0016 104.47 38.0016ZM104.492 34.3491C105.243 34.3491 105.871 34.1277 106.374 33.685C106.878 33.2349 107.257 32.6224 107.513 31.8476C107.775 31.0729 107.906 30.1911 107.906 29.2023C107.906 28.2135 107.775 27.3318 107.513 26.557C107.257 25.7822 106.878 25.1698 106.374 24.7196C105.871 24.2695 105.243 24.0445 104.492 24.0445C103.733 24.0445 103.095 24.2695 102.577 24.7196C102.066 25.1698 101.68 25.7822 101.418 26.557C101.162 27.3318 101.035 28.2135 101.035 29.2023C101.035 30.1911 101.162 31.0729 101.418 31.8476C101.68 32.6224 102.066 33.2349 102.577 33.685C103.095 34.1277 103.733 34.3491 104.492 34.3491Z" fill="#012E4A"/>
<path d="M86.1013 38.0016C84.449 38.0016 83.02 37.6364 81.8145 36.9059C80.616 36.168 79.6906 35.1423 79.0382 33.8289C78.3858 32.5081 78.0596 30.9769 78.0596 29.2355C78.0596 27.4793 78.3858 25.9445 79.0382 24.6311C79.6906 23.3103 80.616 22.2846 81.8145 21.5541C83.02 20.8162 84.449 20.4473 86.1013 20.4473C87.7536 20.4473 89.179 20.8162 90.3774 21.5541C91.583 22.2846 92.5119 23.3103 93.1643 24.6311C93.8168 25.9445 94.143 27.4793 94.143 29.2355C94.143 30.9769 93.8168 32.5081 93.1643 33.8289C92.5119 35.1423 91.583 36.168 90.3774 36.9059C89.179 37.6364 87.7536 38.0016 86.1013 38.0016ZM86.1225 34.3491C86.8742 34.3491 87.5018 34.1277 88.0053 33.685C88.5088 33.2349 88.8882 32.6224 89.1435 31.8476C89.4059 31.0729 89.5371 30.1911 89.5371 29.2023C89.5371 28.2135 89.4059 27.3318 89.1435 26.557C88.8882 25.7822 88.5088 25.1698 88.0053 24.7196C87.5018 24.2695 86.8742 24.0445 86.1225 24.0445C85.3638 24.0445 84.7255 24.2695 84.2079 24.7196C83.6973 25.1698 83.3108 25.7822 83.0484 26.557C82.7931 27.3318 82.6655 28.2135 82.6655 29.2023C82.6655 30.1911 82.7931 31.0729 83.0484 31.8476C83.3108 32.6224 83.6973 33.2349 84.2079 33.685C84.7255 34.1277 85.3638 34.3491 86.1225 34.3491Z" fill="#012E4A"/>
<path d="M59 37.6679V15H67.7225C69.3251 15 70.6619 15.2472 71.7327 15.7416C72.8035 16.236 73.6084 16.9222 74.1473 17.8003C74.6863 18.671 74.9558 19.6745 74.9558 20.8109C74.9558 21.6963 74.7856 22.4748 74.4452 23.1463C74.1048 23.8104 73.6367 24.3564 73.0411 24.7844C72.4525 25.205 71.7788 25.5038 71.02 25.6809V25.9023C71.8497 25.9392 72.6262 26.1827 73.3495 26.6328C74.08 27.0829 74.6721 27.7138 75.1259 28.5255C75.5798 29.3298 75.8067 30.2891 75.8067 31.4033C75.8067 32.606 75.5195 33.6797 74.9451 34.6242C74.3778 35.5613 73.5375 36.3029 72.4241 36.8489C71.3108 37.3949 69.9386 37.6679 68.3075 37.6679H59ZM63.6059 33.7498H67.3608C68.6444 33.7498 69.5804 33.4952 70.169 32.986C70.7576 32.4695 71.0519 31.7833 71.0519 30.9273C71.0519 30.3001 70.9065 29.7467 70.6158 29.2671C70.325 28.7875 69.9102 28.4111 69.3712 28.1381C68.8394 27.8651 68.2047 27.7286 67.4672 27.7286H63.6059V33.7498ZM63.6059 24.4856H67.0204C67.6516 24.4856 68.2118 24.3712 68.7011 24.1424C69.1975 23.9063 69.5875 23.5743 69.8712 23.1463C70.1619 22.7183 70.3073 22.2055 70.3073 21.6078C70.3073 20.7887 70.0272 20.1283 69.467 19.6266C68.9138 19.1248 68.1267 18.8739 67.1055 18.8739H63.6059V24.4856Z" fill="#012E4A"/>
<path d="M22.5195 46.8457V47.7495C20.8542 45.5178 16.0986 41.0176 3.99707 38.8044V19.9922C5.34786 20.232 6.64313 20.527 7.86439 20.8406V37.0339L8.17896 37.1076C14.4518 38.5647 18.0231 41.1467 19.9105 43.0649C20.3175 43.4706 20.6506 43.8579 20.9467 44.2268C20.9837 44.2821 21.0207 44.3374 21.0762 44.3928C21.1502 44.485 21.2057 44.5588 21.2612 44.6325C21.2983 44.6694 21.3168 44.7063 21.3538 44.7616C21.5388 45.0198 21.6868 45.2596 21.8349 45.4625C21.8904 45.5547 21.9459 45.6469 22.0014 45.7391C22.2605 46.1818 22.4085 46.5138 22.4825 46.7166C22.4825 46.7351 22.501 46.7535 22.501 46.772C22.501 46.8089 22.5195 46.8273 22.5195 46.8457Z" fill="url(#paint0_linear_39_9940)"/>
<path d="M24.4805 46.8457V47.7495C26.1458 45.5178 30.9013 41.0176 43.0029 38.8044V19.9922C41.6521 20.232 40.3568 20.527 39.1356 20.8406V37.0339L38.821 37.1076C32.5482 38.5647 28.9769 41.1467 27.0895 43.0649C26.6824 43.4706 26.3494 43.8579 26.0533 44.2268C26.0163 44.2821 25.9793 44.3374 25.9238 44.3928C25.8498 44.485 25.7942 44.5588 25.7387 44.6325C25.7017 44.6694 25.6832 44.7063 25.6462 44.7616C25.4612 45.0198 25.3131 45.2596 25.1651 45.4625C25.1096 45.5547 25.0541 45.6469 24.9986 45.7391C24.7395 46.1818 24.5915 46.5138 24.5175 46.7166C24.5175 46.7351 24.499 46.7535 24.499 46.772C24.499 46.8089 24.4805 46.8273 24.4805 46.8457Z" fill="url(#paint1_linear_39_9940)"/>
<path d="M22.5193 49.2995V50.0003C20.6689 47.8609 15.0622 43.1394 0 40.8708V22.0586C1.09173 22.2246 2.14646 22.409 3.18268 22.6119V39.5245L3.51575 39.5798C11.824 41.0553 16.561 43.6373 19.0776 45.5555C21.4831 47.3814 22.3528 48.9675 22.5193 49.2995Z" fill="url(#paint2_linear_39_9940)"/>
<path d="M22.5197 41.3139V45.021C22.0941 44.3386 21.465 43.4718 20.5583 42.5496C18.6154 40.5762 15.0071 37.9387 8.69727 36.4079V17.5957C14.6555 19.0712 18.0788 21.5795 19.9107 23.4238C20.4658 23.9956 20.9284 24.5304 21.2799 25.0284C21.2614 25.0653 21.2429 25.1206 21.2244 25.1575C20.5398 26.9281 19.3555 28.1084 17.7087 28.6617L16.839 28.9568L17.2276 29.7868L22.2051 40.6684L22.2421 40.7606L22.5197 41.3139Z" fill="url(#paint3_linear_39_9940)"/>
<path d="M24.4805 49.2995V50.0003C26.3309 47.8609 31.9376 43.1394 46.9998 40.8708V22.0586C45.908 22.2246 44.8533 22.409 43.8171 22.6119V39.5245L43.484 39.5798C35.1757 41.0553 30.4387 43.6373 27.9222 45.5555C25.5167 47.3814 24.647 48.9675 24.4805 49.2995Z" fill="url(#paint4_linear_39_9940)"/>
<path d="M38.3029 17.5762V36.3884C31.9931 37.9192 28.3848 40.5751 26.4419 42.5301C25.5352 43.4522 24.9061 44.3191 24.4805 45.0015V41.3128L24.795 40.6488L29.7726 29.7672L30.1612 28.9373L29.2915 28.6422C27.6631 28.1073 26.4789 26.927 25.7757 25.138C25.7572 25.1011 25.7387 25.0457 25.7202 25.0089C26.0718 24.5293 26.5344 23.976 27.0895 23.4043C28.9214 21.5599 32.3446 19.0701 38.3029 17.5762Z" fill="url(#paint5_linear_39_9940)"/>
<path d="M25.2398 31.1324C25.2398 30.2103 24.5922 29.4356 23.704 29.2512C23.5744 29.2143 23.4449 29.2143 23.2969 29.2143C23.0193 29.2143 22.7418 29.2696 22.5012 29.3803C21.8351 29.6754 21.354 30.3578 21.354 31.1324C21.354 31.612 21.5205 32.0362 21.8166 32.3866C22.0016 32.6079 22.2237 32.7739 22.5012 32.903C22.6493 32.9583 22.7973 33.0136 22.9453 33.0505V40.3172L22.5012 39.3397L21.0024 36.0568L17.9863 29.4541C19.189 29.0483 20.0957 28.3844 20.7618 27.6097C21.243 27.0564 21.5945 26.4662 21.8536 25.8761C22.6307 24.1608 22.6493 22.5378 22.6493 22.5378V22.2243C22.6493 20.6381 22.2052 19.8635 21.317 18.9045C20.8359 18.388 20.2437 17.8163 19.5221 17.0417C19.2815 16.765 19.004 16.4884 18.7264 16.1564C16.691 13.7956 16.802 11.1398 16.95 10.0701V10.0516C16.9685 9.90409 17.0055 9.75655 17.0426 9.59056C17.0426 9.57211 17.0426 9.57211 17.0426 9.57211C17.5237 7.19292 19.0965 3.33825 24.0741 0C24.0741 0 24.0741 0.0553301 24.0556 0.129104C23.9815 0.719292 23.3339 2.28698 25.3693 5.18259C26.8126 7.24825 26.239 9.42457 26.239 9.42457C27.3863 7.9491 26.6276 6.32608 26.5906 6.19698C26.5906 6.19698 26.5906 6.19698 26.6091 6.21542C30.5874 9.38768 28.589 14.0354 26.4426 17.7056C24.3701 21.2468 24.3516 22.2427 24.3516 22.2427V22.5194C24.3516 22.5194 24.3886 24.9354 25.7579 26.9827C26.4426 28.0155 27.4788 28.9377 28.9961 29.4541L24.0185 40.3357V32.9583C24.7402 32.6448 25.2398 31.9439 25.2398 31.1324Z" fill="url(#paint6_linear_39_9940)"/>
<path opacity="0.3" d="M24.3516 22.2237V22.5003C24.3516 22.5003 24.3886 24.9164 25.7579 26.9636C25.7579 26.9636 24.7772 27.8489 23.704 29.2506C23.5745 29.2137 23.4449 29.2137 23.2969 29.2137C23.0193 29.2137 22.7418 29.2691 22.5012 29.3797C21.8351 29.6748 21.354 30.3572 21.354 31.1318C21.354 31.6114 21.5205 32.0356 21.8166 32.386C21.317 33.511 20.9839 34.7652 20.9839 36.0378L17.9678 29.4351C19.1705 29.0293 20.0772 28.3653 20.7434 27.5907C21.2245 27.0374 21.576 26.4472 21.8351 25.857C22.6123 24.1418 22.6308 22.5188 22.6308 22.5188V22.2053C22.6308 20.6191 22.1867 19.8445 21.2985 18.8854C20.8174 18.369 20.2253 17.7973 19.5036 17.0227C29.9213 13.0758 26.6831 6.38083 26.6091 6.21484C26.6091 6.21484 26.6091 6.21484 26.6276 6.21484C30.606 9.3871 28.6075 14.0348 26.4611 17.7051C24.3701 21.2093 24.3516 22.2237 24.3516 22.2237Z" fill="#012E4A"/>
<path opacity="0.3" d="M38.3029 17.5762V36.3884C31.9931 37.9192 28.3848 40.5751 26.4419 42.5301C25.5352 43.4522 24.9061 44.3191 24.4805 45.0015C24.4805 45.0199 27.2561 34.3596 38.3029 17.5762Z" fill="#012E4A"/>
<path opacity="0.3" d="M22.5197 45.021C22.0941 44.3386 21.465 43.4718 20.5583 42.5496C18.6154 40.5762 15.0071 37.9388 8.69727 36.408C13.3973 28.4773 19.9107 23.4238 19.9107 23.4238L21.2799 25.0284C21.2614 25.0653 21.2429 25.1206 21.2244 25.1575C20.5398 26.9281 19.3555 28.1084 17.7087 28.6617L16.839 28.9568L17.2276 29.7868L22.2051 40.6684L22.5197 41.3323V45.021Z" fill="#012E4A"/>
<defs>
<linearGradient id="paint0_linear_39_9940" x1="13.2624" y1="-1.13078" x2="13.2624" y2="49.0034" gradientUnits="userSpaceOnUse">
<stop stop-color="#FAAF40"/>
<stop offset="1" stop-color="#EE4036"/>
</linearGradient>
<linearGradient id="paint1_linear_39_9940" x1="33.7326" y1="-1.1308" x2="33.7326" y2="49.0033" gradientUnits="userSpaceOnUse">
<stop stop-color="#FAAF40"/>
<stop offset="1" stop-color="#EE4036"/>
</linearGradient>
<linearGradient id="paint2_linear_39_9940" x1="11.2596" y1="53.9219" x2="11.2596" y2="16.0032" gradientUnits="userSpaceOnUse">
<stop stop-color="#26CDBA"/>
<stop offset="1" stop-color="#6336E6"/>
</linearGradient>
<linearGradient id="paint3_linear_39_9940" x1="15.6096" y1="53.9223" x2="15.6096" y2="16.0038" gradientUnits="userSpaceOnUse">
<stop stop-color="#26CDBA"/>
<stop offset="1" stop-color="#6336E6"/>
</linearGradient>
<linearGradient id="paint4_linear_39_9940" x1="35.7352" y1="53.9219" x2="35.7352" y2="16.0032" gradientUnits="userSpaceOnUse">
<stop stop-color="#26CDBA"/>
<stop offset="1" stop-color="#6336E6"/>
</linearGradient>
<linearGradient id="paint5_linear_39_9940" x1="31.3861" y1="53.9212" x2="31.3861" y2="16.0027" gradientUnits="userSpaceOnUse">
<stop stop-color="#26CDBA"/>
<stop offset="1" stop-color="#6336E6"/>
</linearGradient>
<linearGradient id="paint6_linear_39_9940" x1="22.9384" y1="-1.13036" x2="22.9384" y2="49.0038" gradientUnits="userSpaceOnUse">
<stop stop-color="#FAAF40"/>
<stop offset="1" stop-color="#EE4036"/>
</linearGradient>
</defs>
</svg>
