<svg width="20" height="20" viewBox="0 0 20 20" fill="none" xmlns="http://www.w3.org/2000/svg">
<path d="M4.1642 10.0003C4.16324 9.83477 4.21159 9.67271 4.30309 9.53478C4.39459 9.39685 4.5251 9.28929 4.67797 9.22581C4.83084 9.16234 4.99915 9.14583 5.16144 9.17839C5.32372 9.21095 5.47264 9.2911 5.5892 9.40862L9.99754 13.8253L14.4059 9.40862C14.5653 9.2721 14.7704 9.20076 14.9801 9.20886C15.1898 9.21696 15.3888 9.30391 15.5372 9.45232C15.6856 9.60073 15.7725 9.79968 15.7806 10.0094C15.7887 10.2191 15.7174 10.4242 15.5809 10.5836L10.5809 15.5836C10.4247 15.7388 10.2135 15.826 9.99337 15.826C9.77321 15.826 9.562 15.7388 9.40587 15.5836L4.40587 10.5836C4.25192 10.4284 4.16512 10.2189 4.1642 10.0003Z" fill="#543EE8"/>
<path d="M4.16586 5.00029C4.1649 4.83477 4.21325 4.67271 4.30475 4.53478C4.39625 4.39685 4.52676 4.28929 4.67963 4.22581C4.83249 4.16234 5.0008 4.14583 5.16309 4.17839C5.32538 4.21095 5.4743 4.2911 5.59086 4.40862L9.99919 8.82529L14.4075 4.40862C14.5644 4.2517 14.7773 4.16355 14.9992 4.16355C15.2211 4.16355 15.4339 4.2517 15.5909 4.40862C15.7478 4.56554 15.8359 4.77837 15.8359 5.00029C15.8359 5.22221 15.7478 5.43504 15.5909 5.59196L10.5909 10.592C10.4347 10.7472 10.2235 10.8343 10.0034 10.8343C9.78321 10.8343 9.572 10.7472 9.41586 10.592L4.41586 5.59196C4.33712 5.51478 4.27448 5.42274 4.23157 5.32118C4.18865 5.21961 4.16632 5.11055 4.16586 5.00029Z" fill="#543EE8"/>
</svg>
