<svg width="53" height="50" viewBox="0 0 53 50" fill="none" xmlns="http://www.w3.org/2000/svg">
<path d="M4.34507 40.018V14.7869C1.69076 14.7735 0 14.9619 0 14.9619V44.7331C0 44.7331 14.8805 43.0597 25.8795 50C16.7303 41.2337 4.34507 40.018 4.34507 40.018Z" fill="#543EE8"/>
<path d="M15.6396 36.5814V11.2427C10.7582 9.22388 6.55859 8.54645 6.55859 8.54645V38.3176C6.55859 38.3176 20.671 40.5832 27.2431 49.2643C25.3069 43.5801 15.6396 36.5814 15.6396 36.5814Z" fill="#241442"/>
<path d="M17.8477 5.40601V35.1772C17.8477 35.1772 26.3878 41.2337 29.1421 49.2463V22.6649C29.1421 9.34948 17.8477 5.40601 17.8477 5.40601Z" fill="#543EE8"/>
<path d="M49.8915 37.537V14.5267C52.5458 14.5132 53.0003 14.769 53.0003 14.769V42.7097C53.0003 42.7097 39.406 40.5608 30.8613 50C37.2244 39.1835 49.8915 37.537 49.8915 37.537Z" fill="#241442"/>
<path d="M47.6818 6.15521V35.8995C47.6818 35.8995 31.8969 41.2337 29.1426 49.2463V22.6649C29.1426 9.34947 47.6818 6.15521 47.6818 6.15521Z" fill="#F8BC24"/>
<path d="M30.8652 0L33.1696 4.16779L37.3919 6.44235L33.1696 8.7214L30.8652 12.8847L28.5563 8.7214L24.334 6.44235L28.5563 4.16779L30.8652 0Z" fill="#543EE8"/>
</svg>
